# xmcd CD database file
#
# Track frame offsets:
#	150
#	15734
#	31666
#	47810
#	64048
#	78266
#	89705
#	104989
#	120371
#	135178
#
# Disc length: 1950 seconds
#
# Revision: 0
# Processed by: cddbd v1.5.1PL0 Copyright (c) Steve Scherf et al.
# Submitted via: CDex 1.51
#
DISCID=7a079c0a
DTITLE=Various Artist - Jazz Vocals After Work
DYEAR=2005
DGENRE=Jazz
TTITLE0=I Get Ideas
TTITLE1=I Cover The Water Front
TTITLE2=Bali Ha'i
TTITLE3=Begin The Begine
TTITLE4=Jezebel
TTITLE5=Katusha
TTITLE6=La Mer
TTITLE7=La Vie En Rose
TTITLE8=Lazy Bones
TTITLE9=Love Letters
EXTD=YEAR: 2005
EXTT0=
EXTT1=
EXTT2=
EXTT3=
EXTT4=
EXTT5=
EXTT6=
EXTT7=
EXTT8=
EXTT9=
PLAYORDER=
